<svg width="90" height="25" viewBox="0 0 90 25" fill="none" xmlns="http://www.w3.org/2000/svg">
<path d="M34.18 7.3V10.8H38.88V13.02H34.18V16.72H39.48V19H31.38V5.02H39.48V7.3H34.18ZM41.3045 13.42C41.3045 12.3 41.5245 11.3067 41.9645 10.44C42.4179 9.57333 43.0312 8.90667 43.8045 8.44C44.5779 7.97333 45.4379 7.74 46.3845 7.74C47.1045 7.74 47.7912 7.9 48.4445 8.22C49.0979 8.52667 49.6179 8.94 50.0045 9.46V4.2H52.8445V19H50.0045V17.36C49.6579 17.9067 49.1712 18.3467 48.5445 18.68C47.9179 19.0133 47.1912 19.18 46.3645 19.18C45.4312 19.18 44.5779 18.94 43.8045 18.46C43.0312 17.98 42.4179 17.3067 41.9645 16.44C41.5245 15.56 41.3045 14.5533 41.3045 13.42ZM50.0245 13.46C50.0245 12.78 49.8912 12.2 49.6245 11.72C49.3579 11.2267 48.9979 10.8533 48.5445 10.6C48.0912 10.3333 47.6045 10.2 47.0845 10.2C46.5645 10.2 46.0845 10.3267 45.6445 10.58C45.2045 10.8333 44.8445 11.2067 44.5645 11.7C44.2979 12.18 44.1645 12.7533 44.1645 13.42C44.1645 14.0867 44.2979 14.6733 44.5645 15.18C44.8445 15.6733 45.2045 16.0533 45.6445 16.32C46.0979 16.5867 46.5779 16.72 47.0845 16.72C47.6045 16.72 48.0912 16.5933 48.5445 16.34C48.9979 16.0733 49.3579 15.7 49.6245 15.22C49.8912 14.7267 50.0245 14.14 50.0245 13.46ZM66.0392 7.92V19H63.2192V17.6C62.8592 18.08 62.3859 18.46 61.7992 18.74C61.2259 19.0067 60.5992 19.14 59.9192 19.14C59.0526 19.14 58.2859 18.96 57.6192 18.6C56.9526 18.2267 56.4259 17.6867 56.0392 16.98C55.6659 16.26 55.4792 15.4067 55.4792 14.42V7.92H58.2792V14.02C58.2792 14.9 58.4992 15.58 58.9392 16.06C59.3792 16.5267 59.9792 16.76 60.7392 16.76C61.5126 16.76 62.1192 16.5267 62.5592 16.06C62.9992 15.58 63.2192 14.9 63.2192 14.02V7.92H66.0392ZM71.6019 9.64C71.9619 9.05333 72.4285 8.59333 73.0019 8.26C73.5885 7.92667 74.2552 7.76 75.0019 7.76V10.7H74.2619C73.3819 10.7 72.7152 10.9067 72.2619 11.32C71.8219 11.7333 71.6019 12.4533 71.6019 13.48V19H68.8019V7.92H71.6019V9.64ZM76.1678 13.42C76.1678 12.3 76.3878 11.3067 76.8278 10.44C77.2811 9.57333 77.8878 8.90667 78.6478 8.44C79.4211 7.97333 80.2811 7.74 81.2278 7.74C82.0545 7.74 82.7745 7.90667 83.3878 8.24C84.0145 8.57333 84.5145 8.99333 84.8878 9.5V7.92H87.7078V19H84.8878V17.38C84.5278 17.9 84.0278 18.3333 83.3878 18.68C82.7611 19.0133 82.0345 19.18 81.2078 19.18C80.2745 19.18 79.4211 18.94 78.6478 18.46C77.8878 17.98 77.2811 17.3067 76.8278 16.44C76.3878 15.56 76.1678 14.5533 76.1678 13.42ZM84.8878 13.46C84.8878 12.78 84.7545 12.2 84.4878 11.72C84.2211 11.2267 83.8611 10.8533 83.4078 10.6C82.9545 10.3333 82.4678 10.2 81.9478 10.2C81.4278 10.2 80.9478 10.3267 80.5078 10.58C80.0678 10.8333 79.7078 11.2067 79.4278 11.7C79.1611 12.18 79.0278 12.7533 79.0278 13.42C79.0278 14.0867 79.1611 14.6733 79.4278 15.18C79.7078 15.6733 80.0678 16.0533 80.5078 16.32C80.9611 16.5867 81.4411 16.72 81.9478 16.72C82.4678 16.72 82.9545 16.5933 83.4078 16.34C83.8611 16.0733 84.2211 15.7 84.4878 15.22C84.7545 14.7267 84.8878 14.14 84.8878 13.46Z" fill="white"/>
<rect width="25" height="25" rx="12.5" fill="white"/>
<path d="M12.5 0C10.0277 0 7.61099 0.733112 5.55537 2.10663C3.49976 3.48015 1.89761 5.43238 0.951511 7.71645C0.00541617 10.0005 -0.242126 12.5139 0.240189 14.9386C0.722504 17.3634 1.91301 19.5907 3.66117 21.3388C5.40932 23.087 7.63661 24.2775 10.0614 24.7598C12.4861 25.2421 14.9995 24.9946 17.2835 24.0485C19.5676 23.1024 21.5198 21.5002 22.8934 19.4446C24.2669 17.389 25 14.9723 25 12.5C24.996 9.18603 23.6777 6.00895 21.3344 3.66562C18.991 1.32229 15.814 0.00403676 12.5 0ZM4.20834 17.8417L4.5 16.1C4.42692 15.9998 4.37747 15.8844 4.35536 15.7624C4.33325 15.6403 4.33904 15.5149 4.37232 15.3954C4.40559 15.276 4.46547 15.1656 4.54748 15.0726C4.62949 14.9796 4.73149 14.9063 4.84584 14.8583V11.4708C5.03431 11.6015 5.23365 11.7159 5.44167 11.8125V14.8583C5.55614 14.9055 5.65836 14.9782 5.74057 15.0708C5.82279 15.1634 5.88283 15.2735 5.91616 15.3928C5.94949 15.5121 5.95523 15.6373 5.93294 15.7592C5.91064 15.881 5.86091 15.9961 5.7875 16.0958L6.075 17.8417C6.12037 17.9842 6.13157 18.1354 6.10768 18.2831C6.0838 18.4307 6.0255 18.5707 5.9375 18.6917C5.8461 18.8157 5.72684 18.9165 5.58933 18.986C5.45182 19.0555 5.2999 19.0917 5.14584 19.0917C4.99177 19.0917 4.83985 19.0555 4.70234 18.986C4.56483 18.9165 4.44557 18.8157 4.35417 18.6917C4.26498 18.5713 4.20532 18.4317 4.17999 18.284C4.15466 18.1364 4.16437 17.9849 4.20834 17.8417ZM7.41667 16.7C7.25817 16.6186 7.12527 16.4949 7.03262 16.3427C6.93998 16.1905 6.8912 16.0157 6.89167 15.8375V12.575L12.1125 15.3125C12.3385 15.4295 12.5893 15.4906 12.8437 15.4906C13.0982 15.4906 13.349 15.4295 13.575 15.3125L18.475 12.7417L18.7958 12.575V15.8375C18.7963 16.0157 18.7475 16.1905 18.6549 16.3427C18.5622 16.4949 18.4293 16.6186 18.2708 16.7L13.2958 19.3083C13.156 19.3802 13.001 19.4177 12.8437 19.4177C12.6865 19.4177 12.5315 19.3802 12.3917 19.3083L7.41667 16.7ZM20.3167 11.1042C19.8833 11.3333 18.6083 12 18.2 12.2125L13.2958 14.7875C13.156 14.8594 13.001 14.8969 12.8437 14.8969C12.6865 14.8969 12.5315 14.8594 12.3917 14.7875C12.0208 14.5875 7.125 12.025 6.89167 11.9L5.44167 11.1417C5.27377 11.0667 5.13014 10.9464 5.027 10.7942C4.92386 10.642 4.8653 10.464 4.85794 10.2803C4.85057 10.0966 4.89469 9.9145 4.98532 9.75453C5.07594 9.59456 5.20947 9.46311 5.37084 9.37499L12.3917 5.69166C12.5315 5.61979 12.6865 5.5823 12.8437 5.5823C13.001 5.5823 13.156 5.61979 13.2958 5.69166L20.3167 9.37499C20.4726 9.45922 20.6028 9.58404 20.6936 9.73624C20.7844 9.88845 20.8323 10.0624 20.8323 10.2396C20.8323 10.4168 20.7844 10.5907 20.6936 10.7429C20.6028 10.8951 20.4726 11.0199 20.3167 11.1042Z" fill="#0D9488"/>
</svg>
