<svg width="72" height="20" viewBox="0 0 72 20" fill="none" xmlns="http://www.w3.org/2000/svg">
<path d="M4.225 4.375V8.75H10.1V11.525H4.225V16.15H10.85V19H0.725V1.525H10.85V4.375H4.225ZM13.1307 12.025C13.1307 10.625 13.4057 9.38333 13.9557 8.3C14.5223 7.21667 15.289 6.38333 16.2557 5.8C17.2223 5.21667 18.2973 4.925 19.4807 4.925C20.3807 4.925 21.239 5.125 22.0557 5.525C22.8723 5.90833 23.5223 6.425 24.0057 7.075V0.5H27.5557V19H24.0057V16.95C23.5723 17.6333 22.964 18.1833 22.1807 18.6C21.3973 19.0167 20.489 19.225 19.4557 19.225C18.289 19.225 17.2223 18.925 16.2557 18.325C15.289 17.725 14.5223 16.8833 13.9557 15.8C13.4057 14.7 13.1307 13.4417 13.1307 12.025ZM24.0307 12.075C24.0307 11.225 23.864 10.5 23.5307 9.9C23.1973 9.28333 22.7473 8.81667 22.1807 8.5C21.614 8.16667 21.0057 8 20.3557 8C19.7057 8 19.1057 8.15833 18.5557 8.475C18.0057 8.79167 17.5557 9.25833 17.2057 9.875C16.8723 10.475 16.7057 11.1917 16.7057 12.025C16.7057 12.8583 16.8723 13.5917 17.2057 14.225C17.5557 14.8417 18.0057 15.3167 18.5557 15.65C19.1223 15.9833 19.7223 16.15 20.3557 16.15C21.0057 16.15 21.614 15.9917 22.1807 15.675C22.7473 15.3417 23.1973 14.875 23.5307 14.275C23.864 13.6583 24.0307 12.925 24.0307 12.075ZM44.049 5.15V19H40.524V17.25C40.074 17.85 39.4824 18.325 38.749 18.675C38.0324 19.0083 37.249 19.175 36.399 19.175C35.3157 19.175 34.3574 18.95 33.524 18.5C32.6907 18.0333 32.0324 17.3583 31.549 16.475C31.0824 15.575 30.849 14.5083 30.849 13.275V5.15H34.349V12.775C34.349 13.875 34.624 14.725 35.174 15.325C35.724 15.9083 36.474 16.2 37.424 16.2C38.3907 16.2 39.149 15.9083 39.699 15.325C40.249 14.725 40.524 13.875 40.524 12.775V5.15H44.049ZM51.0023 7.3C51.4523 6.56667 52.0357 5.99167 52.7523 5.575C53.4857 5.15833 54.319 4.95 55.2523 4.95V8.625H54.3273C53.2273 8.625 52.394 8.88333 51.8273 9.4C51.2773 9.91667 51.0023 10.8167 51.0023 12.1V19H47.5023V5.15H51.0023V7.3ZM56.7098 12.025C56.7098 10.625 56.9848 9.38333 57.5348 8.3C58.1014 7.21667 58.8598 6.38333 59.8098 5.8C60.7764 5.21667 61.8514 4.925 63.0348 4.925C64.0681 4.925 64.9681 5.13333 65.7348 5.55C66.5181 5.96667 67.1431 6.49167 67.6098 7.125V5.15H71.1348V19H67.6098V16.975C67.1598 17.625 66.5348 18.1667 65.7348 18.6C64.9514 19.0167 64.0431 19.225 63.0098 19.225C61.8431 19.225 60.7764 18.925 59.8098 18.325C58.8598 17.725 58.1014 16.8833 57.5348 15.8C56.9848 14.7 56.7098 13.4417 56.7098 12.025ZM67.6098 12.075C67.6098 11.225 67.4431 10.5 67.1098 9.9C66.7764 9.28333 66.3264 8.81667 65.7598 8.5C65.1931 8.16667 64.5848 8 63.9348 8C63.2848 8 62.6848 8.15833 62.1348 8.475C61.5848 8.79167 61.1348 9.25833 60.7848 9.875C60.4514 10.475 60.2848 11.1917 60.2848 12.025C60.2848 12.8583 60.4514 13.5917 60.7848 14.225C61.1348 14.8417 61.5848 15.3167 62.1348 15.65C62.7014 15.9833 63.3014 16.15 63.9348 16.15C64.5848 16.15 65.1931 15.9917 65.7598 15.675C66.3264 15.3417 66.7764 14.875 67.1098 14.275C67.4431 13.6583 67.6098 12.925 67.6098 12.075Z" fill="#0C243C"/>
</svg>
