<svg width="35" height="35" viewBox="0 0 35 35" fill="none" xmlns="http://www.w3.org/2000/svg">
<rect x="2" y="3" width="30" height="30" rx="15" fill="white"/>
<path d="M17.5 0C14.0388 0 10.6554 1.02636 7.77752 2.94928C4.89967 4.8722 2.65665 7.60533 1.33212 10.803C0.00758264 14.0007 -0.338976 17.5194 0.336265 20.9141C1.01151 24.3087 2.67822 27.4269 5.12564 29.8743C7.57305 32.3218 10.6913 33.9885 14.0859 34.6637C17.4806 35.339 20.9992 34.9924 24.197 33.6679C27.3947 32.3433 30.1278 30.1003 32.0507 27.2225C33.9736 24.3446 35 20.9612 35 17.5C34.9943 12.8604 33.1488 8.41253 29.8681 5.13187C26.5875 1.85121 22.1395 0.00565146 17.5 0ZM5.89167 24.9783L6.3 22.54C6.19769 22.3997 6.12846 22.2381 6.0975 22.0673C6.06654 21.8965 6.07466 21.7208 6.12124 21.5536C6.16782 21.3864 6.25166 21.2318 6.36647 21.1016C6.48128 20.9714 6.62408 20.8688 6.78417 20.8017V16.0592C7.04804 16.2422 7.32711 16.4022 7.61834 16.5375V20.8017C7.7786 20.8678 7.92171 20.9695 8.0368 21.0991C8.1519 21.2288 8.23597 21.3829 8.28263 21.5499C8.32929 21.7169 8.33732 21.8923 8.30611 22.0628C8.2749 22.2333 8.20527 22.3945 8.1025 22.5342L8.505 24.9783C8.56852 25.1779 8.5842 25.3896 8.55076 25.5963C8.51731 25.803 8.4357 25.999 8.3125 26.1683C8.18454 26.342 8.01758 26.4831 7.82506 26.5804C7.63254 26.6777 7.41987 26.7283 7.20417 26.7283C6.98847 26.7283 6.7758 26.6777 6.58328 26.5804C6.39076 26.4831 6.2238 26.342 6.09584 26.1683C5.97098 25.9998 5.88745 25.8043 5.85199 25.5976C5.81653 25.3909 5.83012 25.1788 5.89167 24.9783ZM10.3833 23.38C10.1614 23.266 9.97537 23.0929 9.84567 22.8798C9.71597 22.6667 9.64767 22.4219 9.64834 22.1725V17.605L16.9575 21.4375C17.2739 21.6013 17.625 21.6869 17.9812 21.6869C18.3375 21.6869 18.6886 21.6013 19.005 21.4375L25.865 17.8383L26.3142 17.605V22.1725C26.3148 22.4219 26.2465 22.6667 26.1168 22.8798C25.9871 23.0929 25.8011 23.266 25.5792 23.38L18.6142 27.0316C18.4184 27.1323 18.2014 27.1848 17.9812 27.1848C17.7611 27.1848 17.5441 27.1323 17.3483 27.0316L10.3833 23.38ZM28.4433 15.5458C27.8367 15.8667 26.0517 16.8 25.48 17.0975L18.6142 20.7025C18.4184 20.8031 18.2014 20.8556 17.9812 20.8556C17.7611 20.8556 17.5441 20.8031 17.3483 20.7025C16.8292 20.4225 9.975 16.835 9.64834 16.66L7.61834 15.5983C7.38328 15.4934 7.1822 15.325 7.0378 15.1119C6.8934 14.8988 6.81142 14.6496 6.80111 14.3924C6.7908 14.1352 6.85256 13.8803 6.97944 13.6563C7.10632 13.4324 7.29326 13.2484 7.51917 13.125L17.3483 7.96833C17.5441 7.8677 17.7611 7.81521 17.9812 7.81521C18.2014 7.81521 18.4184 7.8677 18.6142 7.96833L28.4433 13.125C28.6616 13.2429 28.8439 13.4177 28.971 13.6307C29.0981 13.8438 29.1652 14.0873 29.1652 14.3354C29.1652 14.5835 29.0981 14.827 28.971 15.0401C28.8439 15.2532 28.6616 15.4279 28.4433 15.5458Z" fill="#0D9488"/>
</svg>
